<svg id="Warstwa_1" data-name="Warstwa 1" xmlns="http://www.w3.org/2000/svg" viewBox="0 0 243.03 249.68"><defs><style>.cls-1{font-size:66.76px;font-family:OCRAExtended, OCR A Extended;letter-spacing:0em;}.cls-1,.cls-2{fill:#1d1d1b;}</style></defs><path d="M173.72,16.89h-64a6.89,6.89,0,0,0-6.89,6.89v64a6.89,6.89,0,0,0,6.89,6.88h64a6.88,6.88,0,0,0,6.88-6.88v-64A6.88,6.88,0,0,0,173.72,16.89ZM172.84,80A6.89,6.89,0,0,1,166,86.86H117.51A6.88,6.88,0,0,1,110.63,80V31.54a6.88,6.88,0,0,1,6.88-6.88H166a6.89,6.89,0,0,1,6.89,6.88Z" transform="translate(-20.22 -16.89)"/><text class="cls-1" transform="translate(101.38 61.78)">L</text><path class="cls-2" d="M122.25,81.1V31.36h22V68.62h19.29V81.1Z" transform="translate(-20.22 -16.89)"/><path d="M22.11,218.52c15.34,14,34.05,18.43,54,18.52,26.75.11,45.83-12.17,56.54-36.95,1.28-3,2.19-6.14,3.9-8.82,1.27-2,3.45-4.44,5.42-4.62,1.52-.15,3.86,2.64,4.93,4.61,3.76,6.93,6.58,14.42,10.76,21.07,8.9,14.15,22.33,21.71,38.7,23.91a87.28,87.28,0,0,0,50.1-7.73c5.34-2.54,10.11-6.3,15-9.42,2.94,12.84.05,25.84-13.89,28.68-1.12.22-2.5,2.19-2.65,3.48a74.06,74.06,0,0,0-.13,9.66c0,3.56-1.6,5.59-5.23,5.61q-13.42.06-26.84,0c-3.32,0-5.19-1.69-5.19-5.15,0-1.18,0-2.35,0-3.52-.08-5.52-1.55-7-7.08-7q-42.66,0-85.33,0c-10.7,0-21.4,0-32.11,0-5.58,0-7.06,1.48-7.14,6.94-.12,8.48-.42,8.78-9.09,8.78-7.33,0-14.66.06-22,0-4.62,0-6-1.49-6.13-6.07,0-1.17,0-2.34,0-3.51,0-2.64.72-5.77-.45-7.75-1-1.64-4.28-1.83-6.5-2.8-5-2.18-8.67-6-9.66-11.23s-.82-10.92-1.16-16.39Z" transform="translate(-20.22 -16.89)"/><path d="M73,145c15.26-.56,30.2,1.74,44.8,5.62,15.87,4.21,31.41,4.5,47.22,0,23.53-6.68,47.47-6.31,71.5-3.34,7,.86,14,1.62,21,2.08,4.14.27,5.76,2.2,5.64,6.13-.07,2.49-.09,5,.05,7.47.19,3.18-.8,5.19-3.67,7.2-2.16,1.5-3.47,4.87-4.19,7.66-2,7.65-3.47,15.42-5.09,23.16-3,14.35-12.34,22.41-25.9,26.42-16,4.72-43.17,3-57.35-14.6-6.44-8-10.42-17.25-14.1-26.69a48.11,48.11,0,0,0-3.43-7.59c-4.32-7.09-11.39-7.11-15.65,0-1.43,2.36-2.24,5.08-3.49,7.56-4.11,8.22-7.55,16.9-12.61,24.51-7.89,11.84-20.11,17.1-34,18.57-14.23,1.51-27.84-.08-39.61-9.23a26.49,26.49,0,0,1-9.9-14.67q-3.36-13.65-6.14-27.42c-.77-3.81-1.9-7-5.66-8.8a3.81,3.81,0,0,1-2.06-2.51,82,82,0,0,1,.2-13.58c.17-1.3,2.73-3.12,4.34-3.29C41,147.94,57,146.52,73,145Zm3.38,78.49c7.31.08,16.15-1.17,24-6.14,16.53-10.54,22.67-26.61,22.79-45.32a12.65,12.65,0,0,0-4.67-8.91,52.34,52.34,0,0,0-15.42-7.92c-14.72-4.43-29.87-3.79-44.91-1.83-7.07.92-13.76,3.71-16.52,10.84C35.47,180.11,36,196,45,210.65,51.67,221.45,62.84,223.6,76.41,223.51Zm133-71.92c-8.36.64-14.35.42-20,1.7a116,116,0,0,0-21.09,7c-4.76,2.1-8.41,6.25-8.36,12,.15,15.75,4.83,29.88,16.89,40.52,13.42,11.84,29.45,12.66,46,8.89,8.84-2,15-7.88,18.48-16.2C246.5,193,246.74,180.1,243,167.2c-1.78-6.11-5.93-10.77-12.23-12.18C223,153.27,215,152.45,209.39,151.59Z" transform="translate(-20.22 -16.89)"/><path d="M55.35,138.4c3.5-6.88,6.35-13.68,10.24-19.81,5.24-8.23,13.42-12.18,23.1-12.22q53-.2,105.93,0c11.3.07,19.9,5.43,25.18,15.57,2.82,5.4,5.34,11,8,16.44Z" transform="translate(-20.22 -16.89)"/><path d="M101.59,184.27a18.68,18.68,0,0,1-18.46,18.92,19.11,19.11,0,0,1-18.95-18.61C64,174.26,72.8,165.33,83,165.36A18.84,18.84,0,0,1,101.59,184.27Zm-9.23-6.37a9.35,9.35,0,1,0-18.69.2,9.35,9.35,0,0,0,18.69-.2Z" transform="translate(-20.22 -16.89)"/><path d="M181.56,184.36a19.08,19.08,0,0,1,18.56-19c10.19-.15,19.14,8.85,19,19.1s-8.82,18.88-18.85,18.73A19,19,0,0,1,181.56,184.36Zm28.09-6.43a9.34,9.34,0,1,0-18.67.13,9.19,9.19,0,0,0,9.2,9.15A9.09,9.09,0,0,0,209.65,177.93Z" transform="translate(-20.22 -16.89)"/></svg>