<svg version="1.0" xmlns="http://www.w3.org/2000/svg" width="682.667" height="682.667" viewBox="0 0 512 512">
    <path d="M237 .6c-1.9.2-7.8.9-13 1.5C179 7.2 133.2 26.5 96.3 56 86.7 63.7 63 86.8 63 88.4c0 .6 19 20.1 42.3 43.4l42.3 42.2 5.8-7c10-12 26.9-25.1 42.2-32.8 8.6-4.3 24.9-9.8 35.2-11.9 12.1-2.4 38.4-2.4 50.5 0 27.1 5.4 49.9 17.6 71.4 38.1l10.4 9.9 42-41.9c23-23 41.9-42.4 41.9-43 0-1.5-20.8-21-32-29.9-34.8-28-77.2-46.3-123.2-53.1C282 1 244.4-.3 237 .6zM38.2 121.3C18.1 153.3 4.7 193.4 1.1 233c-4.4 47.3 5.2 97.1 26.9 139.6 4.7 9.1 13.6 24.2 15.7 26.4.2.2 20.1-19.3 44.2-43.4l43.9-43.9-2.5-6.6c-12.1-31.3-12.2-66.8-.4-97.2l2.9-7.4-43.6-43.8c-24-24-43.9-43.7-44.2-43.7s-2.9 3.7-5.8 8.3zM241 257v60h68c37.4 0 68 .4 68 .8 0 1.2-6.3 11.5-11.4 18.6-5.5 7.7-16.1 19-22 23.6-2.5 1.9-4.5 4-4.6 4.5 0 1.3 83.2 84.5 84.6 84.5 1.7 0 24.7-23.6 32.6-33.5 40.7-51 60.6-116.9 54.7-181.5-1-11.5-4.6-34.6-5.5-36.2-.3-.4-59.9-.8-132.5-.8H241v60zM105.2 380.3C82 403.5 63 423 63 423.6c0 1.7 23.7 24.7 33.5 32.6 78.1 62.4 186.9 73.4 276.1 27.8 9.1-4.7 24.2-13.6 26.4-15.7.2-.2-19.3-20.1-43.4-44.2l-43.8-43.9-6.2 2.5c-22.5 8.9-51 11.5-75.4 6.8-9.7-1.9-26-7.4-34.6-11.7-15.3-7.7-32.2-20.8-42.2-32.8-3.2-3.8-5.8-7-5.9-7l-42.3 42.3z" />
</svg> 